TITLE ""
FILE "1Q_j_2235-2248.mp3" MP3
  TRACK 01 AUDIO
    TITLE "1Q_j_2235-2248_01"
    INDEX 01 00:00:00
  TRACK 02 AUDIO
    TITLE "1Q_j_2235-2248_02"
    INDEX 01 00:01:27
  TRACK 03 AUDIO
    TITLE "1Q_j_2235-2248_03"
    INDEX 01 00:01:39
  TRACK 04 AUDIO
    TITLE "1Q_j_2235-2248_04"
    INDEX 01 00:04:18
  TRACK 05 AUDIO
    TITLE "1Q_j_2235-2248_05"
    INDEX 01 00:04:26
  TRACK 06 AUDIO
    TITLE "1Q_j_2235-2248_06"
    INDEX 01 00:10:54
  TRACK 07 AUDIO
    TITLE "1Q_j_2235-2248_07"
    INDEX 01 00:11:26
  TRACK 08 AUDIO
    TITLE "1Q_j_2235-2248_08"
    INDEX 01 00:12:55
  TRACK 09 AUDIO
    TITLE "1Q_j_2235-2248_09"
    INDEX 01 00:12:62
  TRACK 10 AUDIO
    TITLE "1Q_j_2235-2248_10"
    INDEX 01 00:14:48
  TRACK 11 AUDIO
    TITLE "1Q_j_2235-2248_11"
    INDEX 01 00:14:54
  TRACK 12 AUDIO
    TITLE "1Q_j_2235-2248_12"
    INDEX 01 00:19:02
  TRACK 13 AUDIO
    TITLE "1Q_j_2235-2248_13"
    INDEX 01 00:19:49
  TRACK 14 AUDIO
    TITLE "1Q_j_2235-2248_14"
    INDEX 01 00:20:74
  TRACK 15 AUDIO
    TITLE "1Q_j_2235-2248_15"
    INDEX 01 00:21:07
  TRACK 16 AUDIO
    TITLE "1Q_j_2235-2248_16"
    INDEX 01 00:22:33
  TRACK 17 AUDIO
    TITLE "1Q_j_2235-2248_17"
    INDEX 01 00:22:39
  TRACK 18 AUDIO
    TITLE "1Q_j_2235-2248_18"
    INDEX 01 00:27:33
  TRACK 19 AUDIO
    TITLE "1Q_j_2235-2248_19"
    INDEX 01 00:28:09
  TRACK 20 AUDIO
    TITLE "1Q_j_2235-2248_20"
    INDEX 01 00:29:59
  TRACK 21 AUDIO
    TITLE "1Q_j_2235-2248_21"
    INDEX 01 00:29:67
  TRACK 22 AUDIO
    TITLE "1Q_j_2235-2248_22"
    INDEX 01 00:31:72
  TRACK 23 AUDIO
    TITLE "1Q_j_2235-2248_23"
    INDEX 01 00:32:04
  TRACK 24 AUDIO
    TITLE "1Q_j_2235-2248_24"
    INDEX 01 00:39:32
  TRACK 25 AUDIO
    TITLE "1Q_j_2235-2248_25"
    INDEX 01 00:40:04
  TRACK 26 AUDIO
    TITLE "1Q_j_2235-2248_26"
    INDEX 01 00:41:21
  TRACK 27 AUDIO
    TITLE "1Q_j_2235-2248_27"
    INDEX 01 00:41:31
  TRACK 28 AUDIO
    TITLE "1Q_j_2235-2248_28"
    INDEX 01 00:43:20
  TRACK 29 AUDIO
    TITLE "1Q_j_2235-2248_29"
    INDEX 01 00:43:28
  TRACK 30 AUDIO
    TITLE "1Q_j_2235-2248_30"
    INDEX 01 00:48:62
  TRACK 31 AUDIO
    TITLE "1Q_j_2235-2248_31"
    INDEX 01 00:49:32
  TRACK 32 AUDIO
    TITLE "1Q_j_2235-2248_32"
    INDEX 01 00:50:67
  TRACK 33 AUDIO
    TITLE "1Q_j_2235-2248_33"
    INDEX 01 00:51:00
  TRACK 34 AUDIO
    TITLE "1Q_j_2235-2248_34"
    INDEX 01 00:56:26
  TRACK 35 AUDIO
    TITLE "1Q_j_2235-2248_35"
    INDEX 01 00:56:32
  TRACK 36 AUDIO
    TITLE "1Q_j_2235-2248_36"
    INDEX 01 01:04:01
  TRACK 37 AUDIO
    TITLE "1Q_j_2235-2248_37"
    INDEX 01 01:04:42
  TRACK 38 AUDIO
    TITLE "1Q_j_2235-2248_38"
    INDEX 01 01:05:70
  TRACK 39 AUDIO
    TITLE "1Q_j_2235-2248_39"
    INDEX 01 01:06:03
  TRACK 40 AUDIO
    TITLE "1Q_j_2235-2248_40"
    INDEX 01 01:09:15
  TRACK 41 AUDIO
    TITLE "1Q_j_2235-2248_41"
    INDEX 01 01:09:23
  TRACK 42 AUDIO
    TITLE "1Q_j_2235-2248_42"
    INDEX 01 01:13:50
  TRACK 43 AUDIO
    TITLE "1Q_j_2235-2248_43"
    INDEX 01 01:14:20
  TRACK 44 AUDIO
    TITLE "1Q_j_2235-2248_44"
    INDEX 01 01:16:08
  TRACK 45 AUDIO
    TITLE "1Q_j_2235-2248_45"
    INDEX 01 01:16:17
  TRACK 46 AUDIO
    TITLE "1Q_j_2235-2248_46"
    INDEX 01 01:18:03
  TRACK 47 AUDIO
    TITLE "1Q_j_2235-2248_47"
    INDEX 01 01:18:10
  TRACK 48 AUDIO
    TITLE "1Q_j_2235-2248_48"
    INDEX 01 01:24:72
  TRACK 49 AUDIO
    TITLE "1Q_j_2235-2248_49"
    INDEX 01 01:25:44
  TRACK 50 AUDIO
    TITLE "1Q_j_2235-2248_50"
    INDEX 01 01:26:67
  TRACK 51 AUDIO
    TITLE "1Q_j_2235-2248_51"
    INDEX 01 01:27:04
  TRACK 52 AUDIO
    TITLE "1Q_j_2235-2248_52"
    INDEX 01 01:29:10
  TRACK 53 AUDIO
    TITLE "1Q_j_2235-2248_53"
    INDEX 01 01:29:18
  TRACK 54 AUDIO
    TITLE "1Q_j_2235-2248_54"
    INDEX 01 01:33:49
  TRACK 55 AUDIO
    TITLE "1Q_j_2235-2248_55"
    INDEX 01 01:34:21
  TRACK 56 AUDIO
    TITLE "1Q_j_2235-2248_56"
    INDEX 01 01:35:38
  TRACK 57 AUDIO
    TITLE "1Q_j_2235-2248_57"
    INDEX 01 01:35:46
  TRACK 58 AUDIO
    TITLE "1Q_j_2235-2248_58"
    INDEX 01 01:37:14
  TRACK 59 AUDIO
    TITLE "1Q_j_2235-2248_59"
    INDEX 01 01:37:23
  TRACK 60 AUDIO
    TITLE "1Q_j_2235-2248_60"
    INDEX 01 01:44:00
  TRACK 61 AUDIO
    TITLE "1Q_j_2235-2248_61"
    INDEX 01 01:44:45
  TRACK 62 AUDIO
    TITLE "1Q_j_2235-2248_62"
    INDEX 01 01:46:05
  TRACK 63 AUDIO
    TITLE "1Q_j_2235-2248_63"
    INDEX 01 01:46:11
  TRACK 64 AUDIO
    TITLE "1Q_j_2235-2248_64"
    INDEX 01 01:50:67
  TRACK 65 AUDIO
    TITLE "1Q_j_2235-2248_65"
    INDEX 01 01:50:73
  TRACK 66 AUDIO
    TITLE "1Q_j_2235-2248_66"
    INDEX 01 01:56:50
  TRACK 67 AUDIO
    TITLE "1Q_j_2235-2248_67"
    INDEX 01 01:57:20
  TRACK 68 AUDIO
    TITLE "1Q_j_2235-2248_68"
    INDEX 01 01:58:47
  TRACK 69 AUDIO
    TITLE "1Q_j_2235-2248_69"
    INDEX 01 01:58:57
  TRACK 70 AUDIO
    TITLE "1Q_j_2235-2248_70"
    INDEX 01 02:01:71
  TRACK 71 AUDIO
    TITLE "1Q_j_2235-2248_71"
    INDEX 01 02:02:02
  TRACK 72 AUDIO
    TITLE "1Q_j_2235-2248_72"
    INDEX 01 02:06:51
  TRACK 73 AUDIO
    TITLE "1Q_j_2235-2248_73"
    INDEX 01 02:07:23
  TRACK 74 AUDIO
    TITLE "1Q_j_2235-2248_74"
    INDEX 01 02:09:00
  TRACK 75 AUDIO
    TITLE "1Q_j_2235-2248_75"
    INDEX 01 02:09:12
  TRACK 76 AUDIO
    TITLE "1Q_j_2235-2248_76"
    INDEX 01 02:11:46
  TRACK 77 AUDIO
    TITLE "1Q_j_2235-2248_77"
    INDEX 01 02:11:52
  TRACK 78 AUDIO
    TITLE "1Q_j_2235-2248_78"
    INDEX 01 02:17:43
  TRACK 79 AUDIO
    TITLE "1Q_j_2235-2248_79"
    INDEX 01 02:18:13
  TRACK 80 AUDIO
    TITLE "1Q_j_2235-2248_80"
    INDEX 01 02:19:30
  TRACK 81 AUDIO
    TITLE "1Q_j_2235-2248_81"
    INDEX 01 02:19:40
  TRACK 82 AUDIO
    TITLE "1Q_j_2235-2248_82"
    INDEX 01 02:22:30
  TRACK 83 AUDIO
    TITLE "1Q_j_2235-2248_83"
    INDEX 01 02:22:36
  TRACK 84 AUDIO
    TITLE "1Q_j_2235-2248_84"
    INDEX 01 02:27:70
